<?xml version="1.0" encoding="utf-8"?>
<?xml-stylesheet type="text/xsl" href="rss1.xsl"?>
<rss version="2.0" xmlns:atom="http://www.w3.org/2005/Atom" xmlns:content="http://purl.org/rss/1.0/modules/content/" xmlns:dc="http://purl.org/dc/elements/1.1/" xmlns:media="http://search.yahoo.com/mrss/">
<channel>
 <title>Getty</title>
 <link>http://www.gettyimg.com/</link>
 <atom:link href="http://www.gettyimg.com/" rel="self" type="application/rss+xml" />

 
                <item>
                <title><![CDATA[【Singles (lossless)】FLAC - Kelly Clarkson - roses + mine (Live From The Belasco) | TIDAL MAX 24bit / 44.1kHz]]></title>
                <link><![CDATA[https://sharemania.us/threads/kelly-clarkson-roses-mine-live-from-the-belasco-tidal-max-24bit-44-1khz.227943/]]></link>
                <description><![CDATA[<article>
<blockquote class="messageText SelectQuoteContainer ugc baseHtml">
<div style="text-align: center"><img src="https://resources.tidal.com/images/f10235c6/8fa6/4bbd/913b/d7fb13e85f99/640x640.jpg" class="bbCodeImage LbImage" alt="[​IMG]" data-url="https://resources.tidal.com/images/f10235c6/8fa6/4bbd/913b/d7fb13e85f99/640x640.jpg" style=""><br>
<div class="bbCodeBlock bbCodeVfcHH HiddenContent">
<div class="attribution type">Hidden Content:</div>
<blockquote>You must reply before you can see the hidden data contained here.</blockquote>
</div></div>
<div class="messageTextEndMarker">&nbsp;</div>
</blockquote>
</article>]]></description>
                <author><![CDATA[Yennefer]]></author>
                </item>

                
                <item>
                <title><![CDATA[【Singles (lossless)】WAV - Madonna - Sorry (Demo 02.21.2005) (WAV)]]></title>
                <link><![CDATA[https://sharemania.us/threads/madonna-sorry-demo-02-21-2005-wav.227946/]]></link>
                <description><![CDATA[<article>
<blockquote class="messageText SelectQuoteContainer ugc baseHtml">
<img src="https://m.media-amazon.com/images/M/MV5BODI0ODhlOGMtMzM5Ny00MzAzLTg1MzktODUzMWNiZWNmY2ZmXkEyXkFqcGdeQXVyNDQ5MDYzMTk@._V1_.jpg" class="bbCodeImage LbImage" alt="[​IMG]" data-url="https://m.media-amazon.com/images/M/MV5BODI0ODhlOGMtMzM5Ny00MzAzLTg1MzktODUzMWNiZWNmY2ZmXkEyXkFqcGdeQXVyNDQ5MDYzMTk@._V1_.jpg" style=""> <br>
<div class="bbCodeBlock bbCodeVfcHH HiddenContent">
<div class="attribution type">Hidden Content:</div>
<blockquote>You must reply before you can see the hidden data contained here.</blockquote>
</div>
<div class="messageTextEndMarker">&nbsp;</div>
</blockquote>
</article>]]></description>
                <author><![CDATA[brunodesalles_]]></author>
                </item>

                
                <item>
                <title><![CDATA[【Singles (lossless)】WAV - Madonna - Hung Up (Demo 02.21.2005) (WAV)]]></title>
                <link><![CDATA[https://sharemania.us/threads/madonna-hung-up-demo-02-21-2005-wav.227944/]]></link>
                <description><![CDATA[<article>
<blockquote class="messageText SelectQuoteContainer ugc baseHtml">
<img src="https://i.postimg.cc/wBtg0bvV/who-produced-madonna-hung-up.jpg" class="bbCodeImage LbImage" alt="[​IMG]" data-url="https://i.postimg.cc/wBtg0bvV/who-produced-madonna-hung-up.jpg" style=""><br>
<div class="bbCodeBlock bbCodeVfcHH HiddenContent">
<div class="attribution type">Hidden Content:</div>
<blockquote>You must reply before you can see the hidden data contained here.</blockquote>
</div>
<div class="messageTextEndMarker">&nbsp;</div>
</blockquote>
</article>]]></description>
                <author><![CDATA[brunodesalles_]]></author>
                </item>

                
                <item>
                <title><![CDATA[【HD Live Performances】WEB-DL - Dominic Fike: Apple Music Live 2023 4K DV]]></title>
                <link><![CDATA[https://sharemania.us/threads/dominic-fike-apple-music-live-2023-4k-dv.227945/]]></link>
                <description><![CDATA[<article>
<blockquote class="messageText SelectQuoteContainer ugc baseHtml">
<div style="text-align: center"><img src="https://i.imgur.com/3uE8nUv.gif" class="bbCodeImage LbImage" alt="[​IMG]" data-url="https://i.imgur.com/3uE8nUv.gif" style=""><br>
<br>
​</div>
<div class="ToggleTriggerAnchor bbCodeSpoilerContainer">
<button type="button" class="button bbCodeSpoilerButton ToggleTrigger Tooltip JsOnly" data-target="> .SpoilerTarget"><span>Spoiler: <span class="SpoilerTitle">Apple TV +</span></span></button>
<div class="SpoilerTarget bbCodeSpoilerText">
<div class="bbCodeBlock bbCodeCode">
<div class="type">Code:</div>
<pre>Format                                   : Matroska
Format version                           : Version 4
File size                                : 12.0 GiB
Duration                                 : 1 h 7 min
Overall bit rate                         : 25.5 Mb/s
Writing application                      : mkvmerge v73.0.0 ('25 or 6 to 4') 64-bit
Writing library                          : libebml v1.4.4 + libmatroska v1.7.1

Video
ID                                       : 1
Format                                   : HEVC
Format/Info                              : High Efficiency Video Coding
Format profile                           : Main 10@L5@High
HDR format                               : Dolby Vision, Version 1.0, dvhe.08.07, BL+RPU, HDR10 compatible / SMPTE ST 2094 App 4, Version 1, HDR10+ Profile B compatible
Codec ID                                 : V_MPEGH/ISO/HEVC
Duration                                 : 1 h 7 min
Bit rate                                 : 24.7 Mb/s
Width                                    : 3 840 pixels
Height                                   : 2 160 pixels
Display aspect ratio                     : 16:9
Frame rate mode                          : Constant
Frame rate                               : 23.976 (24000/1001) FPS
Color space                              : YUV
Chroma subsampling                       : 4:2:0 (Type 2)
Bit depth                                : 10 bits
Bits/(Pixel*Frame)                       : 0.124
Stream size                              : 11.7 GiB (97%)
Default                                  : Yes
Forced                                   : No
Color range                              : Limited
Color primaries                          : BT.2020
Transfer characteristics                 : PQ
Matrix coefficients                      : BT.2020 non-constant
Mastering display color primaries        : Display P3
Mastering display luminance              : min: 0.0050 cd/m2, max: 1000 cd/m2
Maximum Content Light Level              : 689 cd/m2
Maximum Frame-Average Light Level        : 291 cd/m2

Audio
ID                                       : 2
Format                                   : E-AC-3 JOC
Format/Info                              : Enhanced AC-3 with Joint Object Coding
Commercial name                          : Dolby Digital Plus with Dolby Atmos
Codec ID                                 : A_EAC3
Duration                                 : 1 h 7 min
Bit rate mode                            : Constant
Bit rate                                 : 768 kb/s
Channel(s)                               : 6 channels
Channel layout                           : L R C LFE Ls Rs
Sampling rate                            : 48.0 kHz
Frame rate                               : 31.250 FPS (1536 SPF)
Compression mode                         : Lossy
Stream size                              : 371 MiB (3%)
Title                                    : English
Language                                 : English
Service kind                             : Complete Main
Default                                  : Yes
Forced                                   : No
Complexity index                         : 16
Number of dynamic objects                : 15
Bed channel count                        : 1 channel
Bed channel configuration                : LFE</pre>
</div><div style="text-align: center">​</div></div>
</div><div style="text-align: center"><br>
<br>
<div class="bbCodeBlock bbCodeVfcHH HiddenContent">
<div class="attribution type">Hidden Content:</div>
<blockquote>You must reply before you can see the hidden data contained here.</blockquote>
</div><img src="https://is1-ssl.mzstatic.com/image/thumb/Music126/v4/8f/4b/38/8f4b3830-28c4-6c49-c3e3-09ca7dadf6c9/196871397834.jpg/1200x1200bb.jpg" class="bbCodeImage LbImage" alt="[​IMG]" data-url="https://is1-ssl.mzstatic.com/image/thumb/Music126/v4/8f/4b/38/8f4b3830-28c4-6c49-c3e3-09ca7dadf6c9/196871397834.jpg/1200x1200bb.jpg" style="">​</div>
<div class="messageTextEndMarker">&nbsp;</div>
</blockquote>
</article>]]></description>
                <author><![CDATA[fstambuk]]></author>
                </item>

                </channel></rss>